<svg width="512" height="512" viewBox="0 0 512 512" fill="none" xmlns="http://www.w3.org/2000/svg">
<mask id="mask0_1793_27156" style="mask-type:alpha" maskUnits="userSpaceOnUse" x="62" y="151" width="400" height="208">
<g clip-path="url(#clip0_1793_27156)">
<path d="M113.495 249.731C127.367 262.287 139.954 273.929 152.819 285.248C168.988 299.509 185.5 313.429 201.647 327.71C205.921 331.482 210.04 335.671 213.21 340.332C214.923 342.831 216.271 348.336 214.836 350.036C212.473 353.781 208.002 355.122 204.707 354.386C200.022 353.616 195.091 350.156 191.223 347.348C152.784 319.46 114.506 291.389 76.3924 263.095C72.609 260.293 69.5919 255.897 67.3963 251.661C61.4309 240.209 65.3241 228.065 77.1049 222.805C86.8189 218.479 97.1599 215.643 107.172 211.976C128.223 204.26 149.255 196.521 170.233 188.629C177.255 185.986 184.012 184.777 190.425 189.752C200.633 197.68 199.223 211.966 186.308 218.583C169.531 227.149 151.962 234.129 134.68 241.617C128.205 244.381 121.548 246.663 113.495 249.731Z" fill="white"/>
<path d="M378.24 278.753C354.815 255.088 332.726 232.69 310.534 210.377C303.106 202.926 295.083 196.083 288.067 188.291C281.54 181.021 270.689 172.293 278.534 162.572C286.625 152.59 297.373 161.403 305.211 167.185C321.775 179.403 337.576 192.656 353.814 205.317C379.304 225.194 404.904 244.923 430.503 264.651C440.439 272.343 446.753 281.87 444.52 294.818C442.321 307.738 432.454 313.406 421.056 316.522C375.111 329.046 369.632 330.727 323.591 342.926C318.237 344.343 312.293 344.976 306.856 344.265C296.197 342.896 288.988 336.478 287.388 325.599C285.816 315.102 290.911 307.364 300.453 303.469C308.612 300.137 317.27 297.898 325.786 295.487C352.178 288.017 338.224 291.467 364.617 283.998C368.772 282.877 372.684 280.974 378.24 278.753Z" fill="white"/>
<path d="M251.813 207.239C258.769 193.278 264.794 181.29 270.703 169.272C276.362 157.757 289.299 154.586 298.181 162.601C304.19 168.032 304.658 176.179 299.645 182.669C297.07 185.999 294.736 189.579 292.906 193.358C270.241 239.899 247.712 286.483 225.026 333.014C222.233 338.724 219.032 344.309 215.348 349.497C211.665 354.684 205.746 355.85 201.322 353.174C196.719 350.383 196.149 345.696 198.732 339.095C208.82 313.331 218.469 287.4 228.725 261.719C236.337 242.766 244.651 224.083 251.813 207.239Z" fill="white"/>
</g>
</mask>
<g mask="url(#mask0_1793_27156)">
<path d="M222.662 847.268L220.167 827.246C217.671 807.223 212.681 767.178 241.679 756.438C270.677 745.698 333.665 764.263 379.657 768.176C425.65 772.089 454.648 761.349 443.993 716.419C433.337 671.49 383.028 592.372 400.697 571.864C418.365 551.355 504.012 589.457 527.345 573.833C550.679 558.209 511.699 488.859 501.044 443.93C490.388 399.001 508.057 378.492 542.72 372.637C577.383 366.781 629.041 375.578 663.704 369.722C698.367 363.866 716.036 343.358 728.039 317.965C740.043 292.573 746.382 262.296 749.552 247.158L752.721 232.02L344.853 -119.641L347.349 -99.6184C349.844 -79.5959 354.835 -39.5509 325.836 -28.811C296.838 -18.071 233.851 -36.6361 187.858 -40.5487C141.865 -44.4613 112.867 -33.7213 123.522 11.2079C134.178 56.137 184.487 135.255 166.819 155.764C149.15 176.272 63.5035 138.17 40.17 153.794C16.8365 169.418 55.8162 238.768 66.4718 283.698C77.1273 328.627 59.4587 349.135 24.7955 354.991C-9.86759 360.846 -61.5252 352.05 -96.1883 357.905C-130.851 363.761 -148.52 384.27 -160.524 409.662C-172.528 435.054 -178.867 465.331 -182.036 480.469L-185.206 495.608L222.662 847.268Z" fill="url(#paint0_linear_1793_27156)"/>
</g>
<defs>
<linearGradient id="paint0_linear_1793_27156" x1="528.686" y1="501.356" x2="15.9843" y2="305.771" gradientUnits="userSpaceOnUse">
<stop stop-color="#F79454"/>
<stop offset="1" stop-color="#FFDB5C"/>
</linearGradient>
<clipPath id="clip0_1793_27156">
<rect x="62" y="151" width="400" height="208" rx="20" fill="white"/>
</clipPath>
</defs>
</svg>
